<?xml version="1.0" standalone="no"?><!DOCTYPE svg PUBLIC "-//W3C//DTD SVG 1.1//EN" "http://www.w3.org/Graphics/SVG/1.1/DTD/svg11.dtd"><svg t="1632664617862" class="icon" viewBox="0 0 1024 1024" version="1.1" xmlns="http://www.w3.org/2000/svg" p-id="6410" xmlns:xlink="http://www.w3.org/1999/xlink" width="200" height="200"><defs><style type="text/css"></style></defs><path d="M394.5984 205.2608c24.2176 0 47.104 8.3968 65.4848 23.808l6.656 6.0928 48.896 48.896 46.7456-46.8992a101.3248 101.3248 0 0 1 72.1408-29.9008c24.2176 0 47.104 8.3968 65.4848 23.808l6.656 6.144 184.6784 184.6272c19.3024 19.2 29.9008 44.8 29.9008 72.192 0 24.1664-8.3968 47.104-23.808 65.4336l-6.144 6.656-308.736 308.736a101.3248 101.3248 0 0 1-72.0896 29.9008c-24.2176 0-47.1552-8.3456-65.536-23.7568l-6.656-6.144-305.6128-305.664a101.3248 101.3248 0 0 1-29.9008-72.0896c0-24.2176 8.3968-47.104 23.808-65.4848l6.144-6.656 189.7472-189.7984a101.3248 101.3248 0 0 1 72.192-29.9008z m-19.968 74.4448l-4.096 3.4304L180.736 472.9856a33.8944 33.8944 0 0 0-3.4816 43.9808l3.4816 4.096 305.5616 305.7152a34.0992 34.0992 0 0 0 24.064 9.6256l5.2736-0.4096a33.9456 33.9456 0 0 0 14.6432-5.7344l4.096-3.4816 26.112-26.0608-53.0432-52.992a33.792 33.792 0 0 1-9.5744-18.8416l-0.3584-5.2224a33.8944 33.8944 0 0 1 28.7744-33.5872l5.2224-0.4096 5.2224 0.4096a33.792 33.792 0 0 1 14.592 5.9392l4.1984 3.584 53.0432 53.0432 26.6752-26.6752-53.0432-53.0432a34.048 34.048 0 0 1 18.944-57.6512l5.12-0.4096c7.0144 0 13.9264 2.1504 19.8656 6.4l4.1984 3.584 52.992 52.992 64.9216-65.024-159.3344-159.3344-20.992 20.992a124.928 124.928 0 0 1-88.6272 36.7104 124.928 124.928 0 0 1-88.576-36.6592 46.592 46.592 0 0 1 0-65.7408l76.8-76.8-48.8448-48.8448a35.1232 35.1232 0 0 0-44.032-3.4304z m291.2768-1.5872a45.1584 45.1584 0 0 0-62.5664 0l-70.9632 70.8608 0.8192-0.768L438.8352 442.368l14.08 5.888c25.2416 10.5984 54.5792 5.12 74.1888-14.4384l45.056-45.056a23.6032 23.6032 0 0 1 29.952-3.072l3.7376 3.072 190.464 190.6176 54.1696-54.1696a44.3392 44.3392 0 0 0 13.056-30.976c0-11.8784-4.608-23.04-12.9536-31.3856z" fill="#1296db" p-id="6411"></path><path d="M634.5216 207.2576c24.2176 0 47.104 8.3968 65.4848 23.808l6.656 6.144 184.6784 184.6272c19.3024 19.2 29.9008 44.8 29.9008 72.192 0 24.1664-8.3968 47.104-23.808 65.4336l-6.144 6.656-94.9248 94.72-248.2176-248.2176 24.064-23.9616a23.552 23.552 0 0 1 12.1344-6.5024l4.608-0.4608a23.552 23.552 0 0 1 13.1584 3.9936l3.7376 3.0208 190.464 190.6176 54.1696-54.1696a44.3392 44.3392 0 0 0 13.056-30.976c0-11.8784-4.608-23.04-12.9536-31.3856l-184.6784-184.6784a45.1584 45.1584 0 0 0-62.5664 0l-70.9632 70.8608 0.8192-0.768-24.7808 24.6784-16.1792-16.1792 16.128 16.1792L438.8352 442.368l14.08 5.888c25.2416 10.5984 54.5792 5.12 74.1888-14.4384l21.0432-21.0944 40.7552 40.8064-20.992 20.992a124.928 124.928 0 0 1-88.6272 36.7104 124.928 124.928 0 0 1-88.576-36.6592 46.592 46.592 0 0 1-4.1984-60.9792l4.1472-4.7616 76.8-76.8 48.0256-48.0768 0.1536 0.1536 46.7456-46.8992a101.3248 101.3248 0 0 1 72.1408-29.9008z" fill="#1296db" p-id="6412"></path></svg>