<?xml version="1.0" standalone="no"?><!DOCTYPE svg PUBLIC "-//W3C//DTD SVG 1.1//EN" "http://www.w3.org/Graphics/SVG/1.1/DTD/svg11.dtd"><svg t="1632664440496" class="icon" viewBox="0 0 1024 1024" version="1.1" xmlns="http://www.w3.org/2000/svg" p-id="4730" xmlns:xlink="http://www.w3.org/1999/xlink" width="200" height="200"><defs><style type="text/css"></style></defs><path d="M488.561778 559.217778a199.111111 199.111111 0 1 1 0-398.222222 199.111111 199.111111 0 0 1 0 398.222222z m0-56.888889a142.222222 142.222222 0 1 0 0-284.444445 142.222222 142.222222 0 0 0 0 284.444445z" p-id="4731" fill="#1296db"></path><path d="M726.414222 611.953778a28.444444 28.444444 0 1 1-43.235555 36.977778 256 256 0 0 0-450.616889 166.286222 28.444444 28.444444 0 1 1-56.888889 0 312.888889 312.888889 0 0 1 550.684444-203.264z" p-id="4732" fill="#1296db"></path><path d="M825.514667 697.685333h-145.578667a28.444444 28.444444 0 1 0 0 56.888889h145.635556a28.444444 28.444444 0 1 0 0-56.888889zM825.514667 799.744h-145.578667a28.444444 28.444444 0 0 0 0 56.888889h145.635556a28.444444 28.444444 0 1 0 0-56.888889zM585.898667 697.685333H541.013333a28.444444 28.444444 0 1 0 0 56.888889h44.828445a28.444444 28.444444 0 1 0 0-56.888889zM585.898667 799.744H541.013333a28.444444 28.444444 0 0 0 0 56.888889h44.828445a28.444444 28.444444 0 1 0 0-56.888889z" p-id="4733" fill="#1296db"></path></svg>