<?xml version="1.0" standalone="no"?><!DOCTYPE svg PUBLIC "-//W3C//DTD SVG 1.1//EN" "http://www.w3.org/Graphics/SVG/1.1/DTD/svg11.dtd"><svg t="1632664422887" class="icon" viewBox="0 0 1024 1024" version="1.1" xmlns="http://www.w3.org/2000/svg" p-id="4350" xmlns:xlink="http://www.w3.org/1999/xlink" width="200" height="200"><defs><style type="text/css"></style></defs><path d="M85.333333 194.474667A109.141333 109.141333 0 0 1 194.474667 85.333333h635.050666A109.141333 109.141333 0 0 1 938.666667 194.474667v635.050666A109.141333 109.141333 0 0 1 829.525333 938.666667H194.474667A109.141333 109.141333 0 0 1 85.333333 829.525333V194.474667z m109.141334-49.621334c-27.392 0-49.621333 22.229333-49.621334 49.621334v635.050666c0 27.392 22.229333 49.621333 49.621334 49.621334h635.050666c27.392 0 49.621333-22.186667 49.621334-49.621334V194.474667c0-27.392-22.186667-49.621333-49.621334-49.621334H194.474667z m119.04 158.762667a9.941333 9.941333 0 0 0-9.898667 9.941333v79.36c0 5.504 4.437333 9.941333 9.941333 9.941334h396.885334a9.941333 9.941333 0 0 0 9.941333-9.941334V313.6a9.941333 9.941333 0 0 0-9.941333-9.941333H313.6z m-69.418667 9.941333c0-38.4 31.104-69.461333 69.461333-69.461333h396.885334c38.4 0 69.461333 31.104 69.461333 69.461333v79.36c0 38.4-31.104 69.461333-69.461333 69.461334H313.6c-38.4 0-69.461333-31.104-69.461333-69.461334V313.6z m0 277.802667c0-16.426667 13.312-29.738667 29.781333-29.738667H750.08a29.781333 29.781333 0 0 1 0 59.52H273.92a29.781333 29.781333 0 0 1-29.781333-29.738666z m0 138.922667c0-16.426667 13.312-29.738667 29.781333-29.738667h277.802667a29.781333 29.781333 0 0 1 0 59.52H273.92a29.781333 29.781333 0 0 1-29.781333-29.781333z" p-id="4351" fill="#1296db"></path></svg>